{"title":"Rick and Morty Season 1[BDRip 1080p AC3][AtaraxiaPrime]","uid":15177411,"size":4830388434,"categoryP":"video","categoryS":"hd___tv_shows","magnet":"?xt=urn:btih:687a7cda14d35bf06a67964b6bda6d02328429e9&amp;dn=Rick+and+Morty+Season+1%5BBDRip+1080p+AC3%5D%5BAtaraxiaPrime%5D&amp;tr=udp%3A%2F%2Ftracker.leechers-paradise.org%3A6969&amp;tr=udp%3A%2F%2Fzer0day.ch%3A1337&amp;tr=udp%3A%2F%2Fopen.demonii.com%3A1337&amp;tr=udp%3A%2F%2Ftracker.coppersurfer.tk%3A6969&amp;tr=udp%3A%2F%2Fexodus.desync.com%3A6969","seeders":10,"leechers":2,"uploader":"AtaraxiaPrime","files":13,"time":1467429136,"description":"RICK AND MORTY: SEASON ONE (BLU-RAY)\r\n----------------------------------------\r\n\r\nWelcome to the world of Rick and Morty, a genius inventor grandfather and his less than genius grandson. Missing for nearly 20 years, Rick arrives at his daughter's doorstep looking to move in, but her husband isn't too thrilled. Rick converts the garage into his lab and involves Morty in his insane adventures.\r\n\r\nEPISODE LIST\r\n----------------------------------------\r\n\r\nE01\tPilot\t2013-12-02\r\nE02\tLawnmower Dog\t2013-12-09\r\nE03\tAnatomy Park\t2013-12-16\r\nE04\tM. Night Shaym-Aliens!\t2014-01-13\r\nE05\tMeeseeks and Destroy\t2014-01-20\r\nE06\tRick Potion #9\t2014-01-27\r\nE07\tRaising Gazorpazorp\t2014-03-10\r\nE08\tRixty Minutes\t2014-03-17\r\nE09\tSomething Ricked This Way Comes\t2014-03-24\r\nE10\tClose Rick-Counters of the Rick Kind\t2014-04-07\r\nE11\tRicksy Business\t2014-04-14\r\n\r\nMEDIA INFO\r\n----------------------------------------\r\n\r\nGeneral\r\nComplete name : Season 1E07.Raising Gazorpazorp.mkv\r\nFormat : Matroska\r\nFormat version : Version 2\r\nFile size : 414 MiB\r\nDuration : 22mn 1s\r\nOverall bit rate : 2 630 Kbps\r\nEncoded date : UTC 2016-06-12T09:15:53Z\r\nWriting application : HandBrake 0.10.5 2016021100\r\nWriting library : Lavf55.12.0 / Lavf55.12.0\r\n\r\nVideo\r\nID : 1\r\nFormat : AVC\r\nFormat/Info : Advanced Video Codec\r\nFormat profile :   \r\nFormat settings, CABAC : Yes\r\nFormat settings, ReFrames : 16 frames\r\nCodec ID : V_MPEG4/ISO/AVC\r\nDuration : 22mn 1s\r\nBit rate : 2 130 Kbps\r\nWidth : 1 920 pixels\r\nHeight : 1 080 pixels\r\nDisplay aspect ratio : 16:9\r\nFrame rate mode : Constant\r\nFrame rate : 23.976 (24000/1001) fps\r\nColor space : YUV\r\nChroma subsampling : 4:2:0\r\nBit depth : 8 bits\r\nScan type : Progressive\r\nBits/(Pixel*Frame) : 0.043\r\nStream size : 336 MiB (81%)\r\nWriting library : x264 core 142 r2479 dd79a61\r\nEncoding settings : cabac=1 / ref=16 / deblock=1:1:1 / analyse=0x3:0x133 / me=umh / subme=10 / psy=1 / psy_rd=0.40:0.00 / mixed_ref=1 / me_range=24 / chroma_me=1 / trellis=2 / 8x8dct=1 / cqm=0 / deadzone=21,11 / fast_pskip=1 / chroma_qp_offset=-2 / threads=12 / lookahead_threads=3 / sliced_threads=0 / nr=0 / decimate=1 / interlaced=0 / bluray_compat=0 / constrained_intra=0 / bframes=10 / b_pyramid=2 / b_adapt=2 / b_bias=0 / direct=3 / weightb=1 / open_gop=0 / weightp=2 / keyint=240 / keyint_min=24 / scenecut=40 / intra_refresh=0 / rc_lookahead=60 / rc=crf / mbtree=1 / crf=20.0 / qcomp=0.60 / qpmin=0 / qpmax=69 / qpstep=4 / vbv_maxrate=300000 / vbv_bufsize=300000 / crf_max=0.0 / nal_hrd=none / filler=0 / ip_ratio=1.40 / aq=1:0.60\r\nDefault : Yes\r\nForced : No\r\nColor range : Limited\r\nColor primaries : BT.709\r\nTransfer characteristics : BT.709\r\nMatrix coefficients : BT.709\r\n\r\nAudio\r\nID : 2\r\nFormat : AC-3\r\nFormat/Info : Audio Coding 3\r\nMode extension : CM (complete main)\r\nFormat settings, Endianness : Big\r\nCodec ID : A_AC3\r\nDuration : 22mn 1s\r\nBit rate mode : Constant\r\nBit rate : 448 Kbps\r\nChannel(s) : 6 channels\r\nChannel positions : Front: L C R, Side: L R, LFE\r\nSampling rate : 48.0 KHz\r\nFrame rate : 31.250 fps (1536 spf)\r\nCompression mode : Lossy\r\nStream size : 70.6 MiB (17%)\r\nTitle : Surround\r\nLanguage : English\r\nDefault : Yes\r\nForced : No\r\n\r\nText\r\nID : 3\r\nFormat : PGS\r\nCodec ID : S_HDMV/PGS\r\nCodec ID/Info : Picture based subtitle format used on BDs/HD-DVDs\r\nLanguage : English\r\nDefault : No\r\nForced : No\r\n\r\nSCREENSHOTS\r\n----------------------------------------\r\n \nhttps://www.anony.ws/i/2016/07/02/001.png \nhttps://www.anony.ws/i/2016/07/02/002.png \nhttps://www.anony.ws/i/2016/07/02/003.png \nhttps://www.anony.ws/i/2016/07/02/004.png \nhttps://www.anony.ws/i/2016/07/02/005.png \nhttps://www.anony.ws/i/2016/07/02/006.png\r\n\r\n----------------------------------------\r\n\r\nAtaraxiaPrime","torrent":{"xt":"urn:btih:687a7cda14d35bf06a67964b6bda6d02328429e9","amp;dn":"Rick+and+Morty+Season+1%5BBDRip+1080p+AC3%5D%5BAtaraxiaPrime%5D","amp;tr":["udp%3A%2F%2Ftracker.leechers-paradise.org%3A6969","udp%3A%2F%2Fzer0day.ch%3A1337","udp%3A%2F%2Fopen.demonii.com%3A1337","udp%3A%2F%2Ftracker.coppersurfer.tk%3A6969","udp%3A%2F%2Fexodus.desync.com%3A6969"],"infoHash":"687a7cda14d35bf06a67964b6bda6d02328429e9","infoHashBuffer":{"type":"Buffer","data":[104,122,124,218,20,211,91,240,106,103,150,75,107,218,109,2,50,132,41,233]},"announce":[],"urlList":[]}}